<?xml version="1.0" encoding="UTF-8" standalone="no"?>
<svg
   viewBox="0 0 813280.06 304078.39"
   version="1.1"
   id="svg4596"
   width="813280.06"
   height="304078.41"
   xmlns="http://www.w3.org/2000/svg"
   xmlns:svg="http://www.w3.org/2000/svg">
  <defs
     id="defs4560">
    <style
       id="style4528">.cls-1{fill:#fff;}.cls-2{fill:url(#Dégradé_sans_nom_24);}.cls-3{fill:url(#Dégradé_sans_nom_25);}</style>
  </defs>
  <title
     id="title4562">Fichier 1</title>
  <g
     id="g5013"
     transform="translate(0,1138.2498)">
    <path
       class="st0"
       d="m 486.9884,52.863763 c -20.5,-7.5 -42.3,-10.7 -64.1,-9.5 l 28.8,-41.9000002 z"
       id="path4719"
       style="fill:none;stroke:#ffffff;stroke-width:4;stroke-miterlimit:10" />
    <path
       class="st0"
       d="m 394.0884,305.96376 -6.6,9.7 c -5.9,8.6 -16.4,13.9 -27.6,13.9 h -112.3 c -4.3,0 -6.5,-4 -6.7,-7.4 -0.1,-1 0.2,-2.1 0.7,-3 0,-3.5 8.3,-10.3 10.8,-12.4 4.7,-3.9 10,-6.9 15.7,-8.9 17.1,-6.3 36.3,-6 54.1,-5 24.8,1.5 47.8,6 71.9,13.1 z"
       id="path4721"
       style="fill:none;stroke:#ffffff;stroke-width:4;stroke-miterlimit:10" />
    <path
       class="st0"
       d="m 506.5884,294.26376 v 0 c -35,14 -68.6,5.8 -110.7,-2.7 -14.5,-2.9 -30,-5.9 -46.8,-7.9 -68.9,-8.4 -93,13.2 -107.5,35.6 1.1,-2.7 32.2,-87.6 88.2,-140.4 1.5,-0.4 3,-0.6 4.5,-0.8 30,-2.9 75.7,33.1 106,48.8 10.4,5.3 19,8.3 24.5,6.5 l 0.2,-0.1 z"
       id="path4723"
       style="fill:none;stroke:#ffffff;stroke-width:4;stroke-miterlimit:10" />
    <path
       class="st0"
       d="m 593.3884,207.76376 c -2.4,-3.7 -4.8,-7.2 -7.3,-10.7 0,0 -0.1,-0.1 -0.1,-0.1 -53,-72.3 -135.9,-93.9 -223.3,-66.2 -17.5,5.6 -34.4,12.6 -50.7,21.1 8.1,-15 16.4,-30.8 28.7,-53.499997 11.1,-20.5 21.1,-38.9 21.3,-39 39,-19.1 84.1,-21.4 124.9,-6.5 56.6,20.6 101,72.199997 105.8,139.099997 0.6,6 0.7,11.3 0.7,15.8 z"
       id="path4725"
       style="fill:none;stroke:#ffffff;stroke-width:4;stroke-miterlimit:10" />
    <path
       class="st0"
       d="m 661.9884,307.56376 -72.6,-105.8 c -49.5,-82.8 -179.5,-100.5 -239,-38.2 -3.1,3.3 -8.5,8.6 -14.3,14.5 -0.6,0 -1.2,0.1 -1.8,0.1 -1.5,0.1 -3.1,0.4 -4.5,0.8 -49.5,46.6 -79.6,118.3 -86.6,136.2 l -1.3,2 c -0.3,0.4 -0.5,0.7 -0.6,1.1 0.5,-0.8 1.1,-1.6 1.6,-2.5 -0.8,1.9 -1.2,3.1 -1.3,3.4 14.5,-22.4 38.5,-44 107.5,-35.6 16.8,2.1 32.3,5 46.8,7.9 42,8.5 75.7,16.7 110.7,2.7 l -7.8,-11.4 7.8,11.3 6.6,9.6 c 6,8.7 16.4,13.9 27.6,13.9 h 115 c 5.8,0.2 9.3,-5.6 6.2,-10 z m -197.1,-74.1 c -5.5,1.8 -14.1,-1.2 -24.5,-6.5 0,0 0,0 0,0 v 0 l 4.5,-6.6 c 0.5,-0.7 1.1,-1.3 1.7,-1.7 3,-2.1 7.2,-1.3 9.3,1.7 z"
       id="path4727"
       style="fill:none;stroke:#ffffff;stroke-width:4;stroke-miterlimit:10" />
  </g>
  <g
     id="Calque_2"
     data-name="Calque 2"
     transform="translate(0,1138.2498)">
    <g
       id="Calque_1-2"
       data-name="Calque 1">
      <path
         class="cls-1"
         d="M 83.93,500.32 H 39 L 30.66,521 H 0 L 46.9,414.72 H 76.49 L 123.54,521 H 92.28 Z m -8.8,-22.16 -13.66,-34 -13.66,34 z"
         id="path4564" />
      <path
         class="cls-1"
         d="M 215.67,438.7 V 521 H 188.2 v -8.81 a 29.59,29.59 0 0 1 -10.93,7.59 35.66,35.66 0 0 1 -13.51,2.58 q -15.93,0 -25.42,-9.41 -9.49,-9.41 -9.49,-28.23 v -46 h 28.84 V 480 q 0,9.25 3.49,13.51 3.49,4.26 10.17,4.25 A 14.4,14.4 0 0 0 182.51,493 q 4.32,-4.79 4.32,-14.65 V 438.7 Z"
         id="path4566" />
      <path
         class="cls-1"
         d="m 273.11,440.14 a 43.51,43.51 0 0 1 16.16,-2.81 v 25.95 a 59.53,59.53 0 0 0 -6.52,-0.45 q -9.25,0 -14.5,5 -5.25,5 -5.25,15.34 V 521 h -28.82 v -82.3 h 27.47 v 9.86 a 26.92,26.92 0 0 1 11.46,-8.42 z"
         id="path4568" />
      <path
         class="cls-1"
         d="m 317.81,516.86 a 40.68,40.68 0 0 1 -22.62,-37.18 40.56,40.56 0 0 1 22.54,-37 55.88,55.88 0 0 1 47.89,0 40.4,40.4 0 0 1 16.54,15 41.66,41.66 0 0 1 -16.54,59.12 55.06,55.06 0 0 1 -47.81,0 z m 36.27,-22.69 q 4.86,-5.24 4.86,-14.49 0,-9.25 -4.86,-14.27 a 17.59,17.59 0 0 0 -24.89,0 q -4.86,5.16 -4.86,14.27 0,9.11 4.86,14.49 a 17.4,17.4 0 0 0 24.89,0 z"
         id="path4570" />
      <path
         class="cls-1"
         d="m 440.36,440.14 a 43.56,43.56 0 0 1 16.17,-2.81 v 25.95 A 59.85,59.85 0 0 0 450,462.83 q -9.25,0 -14.49,5 -5.24,5 -5.24,15.33 V 521 h -28.84 v -82.3 h 27.47 v 9.86 a 26.92,26.92 0 0 1 11.46,-8.42 z"
         id="path4572" />
      <path
         class="cls-1"
         d="M 534.08,500.32 H 489.16 L 480.81,521 h -30.66 l 46.9,-106.24 h 29.59 L 573.69,521 h -31.26 z m -8.8,-22.16 -13.66,-34 -13.66,34 z"
         id="path4574" />
      <path
         class="cls-1"
         d="m 580.83,408.34 h 28.83 V 521 h -28.83 z"
         id="path4576" />
      <path
         class="cls-1"
         d="m 700.5,442.57 a 38.24,38.24 0 0 1 14.57,14.87 45.16,45.16 0 0 1 5.38,22.39 q 0,12.75 -5.38,22.38 a 38.2,38.2 0 0 1 -14.57,14.88 40.52,40.52 0 0 1 -20.42,5.23 q -14.42,0 -22.91,-8.65 V 550.4 H 628.33 V 438.7 h 27.47 v 8.19 q 8,-9.56 24.28,-9.56 a 40.53,40.53 0 0 1 20.42,5.24 z m -14,51.6 q 4.85,-5.24 4.85,-14.34 0,-9.1 -4.85,-14.35 a 17.42,17.42 0 0 0 -24.89,0 q -4.86,5.25 -4.86,14.35 0,9.1 4.86,14.34 a 17.4,17.4 0 0 0 24.89,0 z"
         id="path4578" />
      <path
         class="cls-1"
         d="m 817.43,487.11 h -59.79 a 16.72,16.72 0 0 0 7.05,9.79 q 5.23,3.42 13.13,3.42 a 28.52,28.52 0 0 0 10.25,-1.67 30.36,30.36 0 0 0 8.72,-5.47 L 812,509 q -12,13.35 -35.06,13.35 -14.42,0 -25.34,-5.46 a 40.22,40.22 0 0 1 -22.92,-37.18 40.61,40.61 0 0 1 22,-36.89 51.78,51.78 0 0 1 45.53,-0.37 38.72,38.72 0 0 1 15.86,14.72 q 5.84,9.63 5.84,22.84 -0.02,0.27 -0.48,7.1 z m -54.56,-25.5 a 17.19,17.19 0 0 0 -5.69,10.32 h 33.7 a 17.2,17.2 0 0 0 -5.7,-10.32 18.31,18.31 0 0 0 -22.31,0 z"
         id="path4580" />
      <path
         class="cls-1"
         d="m 840.81,520 q -10,-2.36 -16.09,-6.15 l 8.65,-19.73 a 48.58,48.58 0 0 0 13.36,5.54 59.47,59.47 0 0 0 15.32,2.05 c 4.66,0 8,-0.48 10,-1.44 2,-0.96 3,-2.35 3,-4.17 0,-1.82 -1.19,-3.11 -3.57,-3.87 a 72.81,72.81 0 0 0 -11.31,-2.2 112.21,112.21 0 0 1 -16.77,-3.19 25.87,25.87 0 0 1 -11.91,-7.29 q -5,-5.31 -5,-14.87 a 22.53,22.53 0 0 1 4.7,-14 q 4.71,-6.15 13.74,-9.71 9.03,-3.56 21.63,-3.57 a 87.65,87.65 0 0 1 17.75,1.82 51.48,51.48 0 0 1 14.73,5.16 l -8.66,19.58 a 48,48 0 0 0 -23.67,-6.07 c -4.56,0 -7.89,0.53 -10,1.59 -2.11,1.06 -3.19,2.46 -3.19,4.18 0,1.92 1.17,3.26 3.49,4 a 80.32,80.32 0 0 0 11.42,2.34 128.09,128.09 0 0 1 16.85,3.49 25.81,25.81 0 0 1 11.61,7.21 q 4.92,5.23 4.93,14.65 a 22.26,22.26 0 0 1 -4.71,13.89 q -4.7,6.13 -13.88,9.63 -9.18,3.5 -22.09,3.49 A 88.51,88.51 0 0 1 840.81,520 Z"
         id="path4582" />
    </g>
  </g>
</svg>
