<?xml version="1.0" encoding="UTF-8" standalone="no"?>
<svg
   viewBox="0 0 576 512"
   version="1.1"
   id="svg4143"
   sodipodi:docname="bluesky.svg"
   inkscape:version="1.2.2 (b0a8486541, 2022-12-01)"
   xmlns:inkscape="http://www.inkscape.org/namespaces/inkscape"
   xmlns:sodipodi="http://sodipodi.sourceforge.net/DTD/sodipodi-0.dtd"
   xmlns="http://www.w3.org/2000/svg"
   xmlns:svg="http://www.w3.org/2000/svg">
  <defs
     id="defs4147" />
  <sodipodi:namedview
     id="namedview4145"
     pagecolor="#ffffff"
     bordercolor="#000000"
     borderopacity="0.25"
     inkscape:showpageshadow="2"
     inkscape:pageopacity="0.0"
     inkscape:pagecheckerboard="0"
     inkscape:deskcolor="#d1d1d1"
     showgrid="false"
     inkscape:zoom="1.0195312"
     inkscape:cx="288.85824"
     inkscape:cy="256"
     inkscape:window-width="1366"
     inkscape:window-height="731"
     inkscape:window-x="0"
     inkscape:window-y="0"
     inkscape:window-maximized="1"
     inkscape:current-layer="svg4143" />
  <!--! Font Awesome Free 7.1.0 by @fontawesome - https://fontawesome.com License - https://fontawesome.com/license/free (Icons: CC BY 4.0, Fonts: SIL OFL 1.1, Code: MIT License) Copyright 2025 Fonticons, Inc. -->
  <path
     fill="currentColor"
     d="M407.8 294.7c-3.3-.4-6.7-.8-10-1.3 3.4 .4 6.7 .9 10 1.3zM288 227.1C261.9 176.4 190.9 81.9 124.9 35.3 61.6-9.4 37.5-1.7 21.6 5.5 3.3 13.8 0 41.9 0 58.4S9.1 194 15 213.9c19.5 65.7 89.1 87.9 153.2 80.7 3.3-.5 6.6-.9 10-1.4-3.3 .5-6.6 1-10 1.4-93.9 14-177.3 48.2-67.9 169.9 120.3 124.6 164.8-26.7 187.7-103.4 22.9 76.7 49.2 222.5 185.6 103.4 102.4-103.4 28.1-156-65.8-169.9-3.3-.4-6.7-.8-10-1.3 3.4 .4 6.7 .9 10 1.3 64.1 7.1 133.6-15.1 153.2-80.7 5.9-19.9 15-138.9 15-155.5s-3.3-44.7-21.6-52.9c-15.8-7.1-40-14.9-103.2 29.8-66.1 46.6-137.1 141.1-163.2 191.8z"
     id="path4141"
     style="fill:#ffffff" />
</svg>
