<?xml version="1.0" encoding="UTF-8" standalone="no"?>
<!-- Created with Inkscape (http://www.inkscape.org/) -->

<svg
   width="1064.5605mm"
   height="1176.9053mm"
   viewBox="0 0 1064.5606 1176.9053"
   version="1.1"
   id="svg5"
   xml:space="preserve"
   inkscape:version="1.2.2 (b0a8486541, 2022-12-01)"
   sodipodi:docname="logo_serotine_site.svg"
   inkscape:export-filename="serotine_logo.svg"
   inkscape:export-xdpi="96"
   inkscape:export-ydpi="96"
   xmlns:inkscape="http://www.inkscape.org/namespaces/inkscape"
   xmlns:sodipodi="http://sodipodi.sourceforge.net/DTD/sodipodi-0.dtd"
   xmlns="http://www.w3.org/2000/svg"
   xmlns:svg="http://www.w3.org/2000/svg"><sodipodi:namedview
     id="namedview7"
     pagecolor="#ffffff"
     bordercolor="#000000"
     borderopacity="0.25"
     inkscape:showpageshadow="2"
     inkscape:pageopacity="0.0"
     inkscape:pagecheckerboard="0"
     inkscape:deskcolor="#d1d1d1"
     inkscape:document-units="mm"
     showgrid="false"
     inkscape:zoom="0.01"
     inkscape:cx="-107800"
     inkscape:cy="-100400"
     inkscape:window-width="1296"
     inkscape:window-height="699"
     inkscape:window-x="0"
     inkscape:window-y="0"
     inkscape:window-maximized="1"
     inkscape:current-layer="layer9" /><defs
     id="defs2" /><g
     inkscape:groupmode="layer"
     id="layer4"
     inkscape:label="Test3"
     transform="translate(53902.697,-21366.216)"><g
       inkscape:groupmode="layer"
       id="layer9"
       inkscape:label="Logo def"><path
         id="path702"
         style="font-size:192px;font-family:Gilroy-Black;-inkscape-font-specification:Gilroy-Black;text-orientation:upright;white-space:pre;fill:#ffffff;fill-rule:evenodd;stroke:none;stroke-width:291.136;stroke-linecap:round;stroke-linejoin:round;paint-order:markers fill stroke"
         d="m -53371.915,21366.222 c -60.274,0.229 -119.116,7.208 -174.607,21.181 -47.771,12.028 -109.826,38.748 -142.995,61.568 -31.573,21.722 -70.969,61.055 -90.139,89.994 -39.762,60.026 -53.96,114.676 -50.774,195.439 1.592,40.359 6.915,72.341 17.848,100.777 -22.873,-4.805 -46.877,-1.163 -66.499,18.32 -0.04,0.03 -0.06,0.06 -0.1,0.09 -12.921,9.99 -20.074,21.209 -22.511,32.805 -2.444,11.629 -0.208,23.306 4.341,34.354 9.017,21.893 27.089,41.995 39.837,57.541 9.662,19.328 16.3,41.299 26.402,61.253 10.028,19.809 23.891,37.724 47.559,47.893 5.279,5.036 10.903,10.659 14.619,16.607 3.827,6.128 5.654,12.188 3.917,19.032 a 4.802,4.802 0 0 0 3.473,5.833 4.802,4.802 0 0 0 5.836,-3.472 c 2.498,-9.842 -0.4,-18.985 -5.082,-26.481 -4.682,-7.496 -11.127,-13.734 -16.621,-18.958 a 4.8024802,4.8024802 0 0 0 -1.469,-0.956 c -21.784,-9.04 -34.027,-24.799 -43.664,-43.835 -9.636,-19.037 -16.294,-41.203 -26.588,-61.661 a 4.8024802,4.8024802 0 0 0 -0.572,-0.882 c -13.001,-15.893 -30.633,-35.825 -38.765,-55.57 -4.067,-9.873 -5.76,-19.517 -3.825,-28.723 1.936,-9.207 7.448,-18.302 19.073,-27.26 a 4.8024802,4.8024802 0 0 0 0.48,-0.424 c 18.182,-18.355 39.104,-20.805 60.871,-15.519 21.767,5.286 43.869,18.822 61.565,32.439 39.927,32.839 88.021,61.422 114.476,103.16 3.243,39.735 -29.062,72.899 -55.742,101.945 a 4.802,4.802 0 0 0 0.287,6.785 4.802,4.802 0 0 0 6.785,-0.286 c 26.717,-29.087 62.659,-64.708 58.182,-110.466 a 4.8024802,4.8024802 0 0 0 -0.703,-2.068 c -25.484,-40.946 -68.785,-68.653 -106.043,-97.664 81.808,-2.928 172.327,3.39 245.822,37.928 19.381,15.874 43.483,40.006 68.355,56.67 -8.911,-1.06 -17.911,-2.05 -26.835,-2.291 -24.648,-0.668 -49.268,4.969 -65.28,30.285 a 4.8024802,4.8024802 0 0 0 -0.703,1.947 c -2.233,17.157 -8.831,34.237 -6.158,48.563 1.336,7.163 5.983,13.693 14.051,16.915 8.067,3.223 19.115,3.861 35.023,2.079 a 4.802,4.802 0 0 0 4.238,-5.307 4.802,4.802 0 0 0 -5.306,-4.238 c -15.117,1.693 -24.864,0.755 -30.393,-1.453 -5.528,-2.209 -7.279,-4.967 -8.172,-9.756 -1.745,-9.353 3.536,-26.266 6.03,-44.287 14.021,-21.577 33.5,-25.768 56.41,-25.147 15.646,0.424 32.424,3.322 48.835,4.764 0.924,0.405 1.85,0.961 2.772,1.332 a 4.802,4.802 0 0 0 4.358,-0.735 c 5.068,0.28 10.075,0.346 14.976,0.08 18.373,6.282 26.539,17.061 29.666,30.518 3.167,13.633 0.54,30.31 -4.719,46.165 a 4.802,4.802 0 0 0 0.03,0.388 c -13.139,-7.701 -30.501,-9.241 -45.822,1.016 a 4.8024802,4.8024802 0 0 0 -0.32,0.234 c -34.105,27.162 -76.995,57.154 -120.514,47.916 a 4.802,4.802 0 0 0 -5.695,3.701 4.802,4.802 0 0 0 3.701,5.693 c 48.687,10.335 93.825,-22.209 128.233,-49.597 15.964,-10.643 34.014,-5.069 44.128,6.215 5.064,5.648 7.913,12.574 7.571,19.455 -0.342,6.88 -3.689,14.032 -12.445,20.732 a 4.8024802,4.8024802 0 0 0 -1.205,1.354 c -23.941,40.118 -55.051,85.118 -102.683,91.757 a 4.802,4.802 0 0 0 -4.091,5.42 4.802,4.802 0 0 0 5.418,4.092 c 34.384,-4.792 60.083,-27.028 80.566,-53.093 a 4.802,4.802 0 0 0 0.508,-0.03 c 38.735,-18.447 44.291,-21.237 77.738,-46.948 11.757,-3.448 21.657,-2.597 30.344,1.15 8.859,3.822 16.54,10.774 22.895,19.668 12.709,17.79 19.786,43.251 20.658,63.319 a 4.8024802,4.8024802 0 0 0 0.218,1.238 c 2.807,8.882 2.946,21.543 0.222,29.713 -1.363,4.085 -3.358,6.848 -5.286,8.027 -1.928,1.18 -4.039,1.549 -8.197,-0.387 a 4.8024802,4.8024802 0 0 0 -6.379,6.379 c 7.086,15.222 9.675,36.498 15.175,56.348 3.816,13.771 9.44,27.105 19.43,36.936 -8.229,-2.387 -18.18,-6.592 -27.461,-12.313 -9.36,-5.77 -18.009,-13.072 -23.719,-21.32 -5.709,-8.248 -8.553,-17.221 -6.908,-27.346 a 4.8024802,4.8024802 0 0 0 0.05,-1.103 c -0.437,-6.302 -1.738,-11.31 -4.176,-15.235 -2.437,-3.925 -6.19,-6.563 -10.243,-7.582 -8.108,-2.037 -16.698,1.037 -25.581,5.184 -8.883,4.147 -18.109,9.768 -26.509,14.553 -8.367,4.765 -16.117,8.601 -20.58,9.431 -0.374,0.05 -96.351,13.039 -170.053,-26.355 1.741,-9.281 1.203,-19.636 -1.455,-28.516 -1.027,-21.827 -8.292,-48.292 -22.407,-68.049 -7.104,-9.942 -16.022,-18.207 -26.904,-22.902 -10.882,-4.695 -23.672,-5.639 -37.635,-1.365 a 4.8024802,4.8024802 0 0 0 -1.523,0.785 c -33.672,25.912 -73.381,43.704 -112.547,62.354 -42.799,17.834 -55.756,21.668 -68.922,26.179 -13.18,4.516 -26.339,9.655 -68.543,29.731 a 4.802,4.802 0 0 0 -2.273,6.398 4.802,4.802 0 0 0 6.398,2.274 c 42.081,-20.018 54.602,-24.887 67.532,-29.317 12.929,-4.43 26.522,-8.487 69.622,-26.451 a 4.8024802,4.8024802 0 0 0 0.22,-0.1 c 38.728,-18.443 78.778,-36.325 113.48,-62.814 11.776,-3.464 21.689,-2.612 30.387,1.14 8.859,3.822 16.539,10.774 22.894,19.668 12.709,17.789 19.787,43.25 20.658,63.318 a 4.8024802,4.8024802 0 0 0 0.219,1.239 c 2.807,8.881 2.947,21.542 0.223,29.712 -1.362,4.085 -3.36,6.849 -5.288,8.028 -1.928,1.179 -4.038,1.549 -8.197,-0.387 a 4.8024802,4.8024802 0 0 0 -6.379,6.379 c 7.086,15.222 9.676,36.498 15.176,56.348 3.816,13.77 9.439,27.105 19.43,36.935 -8.23,-2.386 -18.181,-6.591 -27.461,-12.312 -9.361,-5.77 -18.009,-13.073 -23.719,-21.321 -5.709,-8.247 -8.554,-17.221 -6.908,-27.345 a 4.8024802,4.8024802 0 0 0 0.05,-1.104 c -0.439,-6.321 -1.762,-11.276 -4.379,-15.076 -2.618,-3.799 -6.735,-6.078 -10.922,-6.582 -8.374,-1.007 -16.912,3.103 -25.955,8.264 -9.043,5.161 -18.469,11.781 -27.014,17.303 -8.544,5.521 -16.493,9.814 -20.695,10.578 a 4.8024802,4.8024802 0 0 0 -1.437,0.507 c -38.864,21.147 -58.943,31.441 -69.385,36.293 -5.221,2.427 -8.068,3.482 -9.319,3.823 -0.301,0.08 -0.437,0.14 -0.499,0.182 -0.03,-0.02 -0.02,-0.03 -0.1,-0.04 -0.365,-0.08 -1.455,-0.281 -2.493,-0.189 -1.037,0.09 -1.985,0.357 -3.07,0.755 -2.168,0.796 -5.084,2.203 -10.332,4.998 -10.495,5.591 -30.121,16.742 -68.41,39.033 a 4.802,4.802 0 0 0 -1.734,6.567 4.802,4.802 0 0 0 6.566,1.732 c 0.06,-0.03 0.08,-0.04 0.134,-0.08 6.076,13.798 64.714,36.528 94.509,47.927 1.418,0.655 5.895,2.596 16.176,6.98 38.259,16.314 158.807,55.229 240.454,65.825 v 0.03 c 39.082,5.041 152.709,4.97 194.687,-0.155 75.63,-9.23 152.343,-34.197 209.82,-68.283 42.627,-25.28 98.48,-80.277 118.772,-116.955 78.444,-141.78 46.577,-318.309 -73.818,-408.92 -58.118,-43.742 -124.736,-72.049 -271.232,-115.253 -95.839,-28.264 -128.506,-39.793 -159.356,-56.235 -38.932,-20.751 -60.649,-51.249 -60.727,-85.282 -0.04,-15.908 15.111,-42.66 29.743,-52.528 18.359,-12.38 57.006,-21.8 89.38,-21.784 78.098,0.04 213.288,41.487 329.156,100.92 23.681,12.147 43.417,21.711 43.868,21.26 0.445,-0.454 26.262,-54.284 57.368,-119.621 l 56.56,-118.795 -9.83,-7.416 c -5.408,-4.078 -30.236,-17.487 -55.173,-29.797 -126.121,-62.256 -265.673,-94.427 -398.278,-93.924 z m -252.718,397.83 c 18.541,2.696 33.652,13.148 47.427,26.952 14.305,14.336 26.925,32.032 40.077,46.987 13.036,18.726 27.53,38.285 28.706,59.721 -43.02,-16.056 -89.972,-24.129 -136.798,-27.323 a 4.802,4.802 0 0 0 0.515,-5.984 c -11.031,-15.792 -11.346,-34.765 -5.959,-53.437 5.128,-17.77 15.547,-34.768 26.032,-46.916 z m 235.844,230.21 v 0 c -3.131,0.206 -6.362,2.219 -8.124,5.088 -2.014,3.28 -3.023,7.497 -3.527,13.332 a 4.802,4.802 0 0 0 4.371,5.198 4.802,4.802 0 0 0 5.198,-4.372 c 0.432,-5.012 1.453,-8.008 2.142,-9.13 0.265,-0.431 0.255,-0.475 0.261,-0.535 0.129,0.02 1.372,0.497 2.772,1.835 1.412,1.349 2.958,3.374 4.225,5.551 1.266,2.178 2.264,4.525 2.765,6.41 0.308,1.156 0.219,1.362 0.217,1.899 -1.261,-0.336 -3.44,-1.165 -6.757,-3.305 a 4.802,4.802 0 0 0 -6.639,1.432 4.802,4.802 0 0 0 1.431,6.638 c 4.671,3.013 8.279,4.712 11.903,5.088 1.812,0.188 3.745,-0.02 5.48,-0.953 1.735,-0.934 3.022,-2.577 3.653,-4.174 1.261,-3.194 0.781,-6.139 0,-9.091 -0.785,-2.953 -2.1,-5.94 -3.746,-8.772 -1.647,-2.831 -3.615,-5.49 -5.895,-7.668 -2.28,-2.178 -4.885,-4.068 -8.394,-4.445 -0.439,-0.05 -0.884,-0.06 -1.332,-0.03 z m -201.87,48.563 c -4.87,0 -9.837,1.07 -14.037,4.279 -5.599,4.279 -8.792,11.955 -8.695,22.735 a 4.8024802,4.8024802 0 0 0 0.709,2.467 c 6.007,9.787 12.896,14.842 20.093,15.355 7.198,0.512 13.256,-3.369 17.95,-7.901 9.387,-9.062 14.992,-22.179 14.992,-22.179 a 4.8024802,4.8024802 0 0 0 -2.031,-6.125 c 0,0 -11.612,-6.746 -24.174,-8.317 -1.57,-0.196 -3.184,-0.315 -4.807,-0.314 z m 0.08,9.616 c 1.125,0 2.307,0.08 3.532,0.228 6.678,0.834 12.521,3.326 16.408,5.164 -2.09,3.993 -5.534,10.058 -10.673,15.019 -3.665,3.538 -7.355,5.46 -10.596,5.229 -3.067,-0.218 -7.053,-2.412 -11.801,-9.684 0.176,-7.913 2.279,-11.704 4.842,-13.662 2.041,-1.559 4.912,-2.287 8.288,-2.294 z" /><path
         id="path704"
         style="font-weight:bold;font-size:44.9983px;font-family:Ubuntu;-inkscape-font-specification:Ubuntu;text-align:center;text-orientation:upright;text-anchor:middle;display:inline;fill:#d9a764;fill-opacity:1;fill-rule:evenodd;stroke:none;stroke-width:59.3256;stroke-linecap:round;stroke-linejoin:round;paint-order:markers fill stroke"
         d="m -53303.349,21366.66 c -8.391,0.03 -16.721,0.328 -25.048,0.63 119.309,5.861 242.364,37.377 354.763,92.859 24.937,12.31 49.765,25.719 55.173,29.797 l 9.83,7.416 -56.56,118.795 c -31.106,65.337 -56.923,119.167 -57.368,119.621 -0.05,0.05 -2.307,-1.069 -2.755,-1.231 0.05,0.155 0.336,1.414 0.359,1.468 0.589,1.4 62.814,-0.275 70.56,0.519 l -0.262,-0.502 c 0.27,0.09 0.625,0.217 0.66,0.181 0.445,-0.454 26.262,-54.283 57.369,-119.621 l 56.56,-118.795 -9.83,-7.416 c -5.408,-4.078 -30.237,-17.487 -55.173,-29.797 -126.122,-62.256 -265.673,-94.427 -398.278,-93.924 z m -94.354,247.357 c -8.414,0 -17.247,0.655 -26.042,1.812 -24.292,3.435 -48.024,10.656 -61.218,19.553 -14.632,9.868 -29.783,36.62 -29.743,52.528 0.08,34.033 21.795,64.531 60.727,85.282 30.85,16.442 63.517,27.971 159.356,56.235 146.496,43.204 213.114,71.511 271.232,115.253 120.395,90.611 152.262,267.14 73.818,408.92 -20.292,36.678 -76.145,91.675 -118.772,116.955 -43.647,25.885 -98.397,46.463 -155.331,58.933 -8.669,1.898 -17.378,3.654 -26.117,5.164 -10.153,1.793 -20.328,3.365 -30.491,4.606 -14.681,1.792 -38.307,2.927 -64.261,3.481 48.187,1.056 107.143,-0.07 134.943,-3.465 75.632,-9.231 152.344,-34.197 209.821,-68.283 42.628,-25.281 98.48,-80.278 118.772,-116.956 78.445,-141.78 46.577,-318.309 -73.818,-408.92 -58.119,-43.742 -124.735,-72.049 -271.232,-115.253 -95.839,-28.264 -128.506,-39.793 -159.356,-56.235 -38.932,-20.751 -60.649,-51.248 -60.727,-85.281 -0.04,-15.909 15.111,-42.661 29.743,-52.528 12.466,-8.407 34.311,-15.364 57.17,-19.013 -13.876,-1.758 -26.868,-2.782 -38.473,-2.788 z" /></g></g></svg>
