<?xml version="1.0" encoding="UTF-8" standalone="no"?>
<svg
   viewBox="0 0 640 640"
   version="1.1"
   id="svg4"
   sodipodi:docname="user-pen.svg"
   inkscape:version="1.2.2 (b0a8486541, 2022-12-01)"
   xmlns:inkscape="http://www.inkscape.org/namespaces/inkscape"
   xmlns:sodipodi="http://sodipodi.sourceforge.net/DTD/sodipodi-0.dtd"
   xmlns="http://www.w3.org/2000/svg"
   xmlns:svg="http://www.w3.org/2000/svg">
  <defs
     id="defs8" />
  <sodipodi:namedview
     id="namedview6"
     pagecolor="#ffffff"
     bordercolor="#000000"
     borderopacity="0.25"
     inkscape:showpageshadow="2"
     inkscape:pageopacity="0.0"
     inkscape:pagecheckerboard="0"
     inkscape:deskcolor="#d1d1d1"
     showgrid="false"
     inkscape:zoom="0.815625"
     inkscape:cx="320.61303"
     inkscape:cy="320"
     inkscape:window-width="1366"
     inkscape:window-height="731"
     inkscape:window-x="0"
     inkscape:window-y="0"
     inkscape:window-maximized="1"
     inkscape:current-layer="svg4" />
  <!--! Font Awesome Free 7.1.0 by @fontawesome - https://fontawesome.com License - https://fontawesome.com/license/free (Icons: CC BY 4.0, Fonts: SIL OFL 1.1, Code: MIT License) Copyright 2025 Fonticons, Inc. -->
  <path
     fill="currentColor"
     d="M256.1 312C322.4 312 376.1 258.3 376.1 192C376.1 125.7 322.4 72 256.1 72C189.8 72 136.1 125.7 136.1 192C136.1 258.3 189.8 312 256.1 312zM226.4 368C127.9 368 48.1 447.8 48.1 546.3C48.1 562.7 61.4 576 77.8 576L274.3 576L285.2 521.5C289.5 499.8 300.2 479.9 315.8 464.3L383.1 397C355.1 378.7 321.7 368.1 285.7 368.1L226.3 368.1zM332.3 530.9L320.4 590.5C320.2 591.4 320.1 592.4 320.1 593.4C320.1 601.4 326.6 608 334.7 608C335.7 608 336.6 607.9 337.6 607.7L397.2 595.8C409.6 593.3 421 587.2 429.9 578.3L548.8 459.4L468.8 379.4L349.9 498.3C341 507.2 334.9 518.6 332.4 531zM600.1 407.9C622.2 385.8 622.2 350 600.1 327.9C578 305.8 542.2 305.8 520.1 327.9L491.3 356.7L571.3 436.7L600.1 407.9z"
     id="path2"
     style="fill:#10243e;fill-opacity:1" />
</svg>
